<svg xmlns="http://www.w3.org/2000/svg" version="1.1" viewBox="-5.0 -10.0 110.0 135.0">
 <path d="m49.98 64.262c-2.2812 0-4.5664-0.48438-6.6445-1.4492l-2.3711-1.1016c-2.6797-1.2422-5.9336-1.1523-8.5078 0.24219-4.6094 2.4961-10.34 2.4961-14.945 0-2.1406-1.1641-4.8477-1.4336-7.2461-0.71484-1.6523 0.48047-3.3945-0.45312-3.8828-2.1094-0.49219-1.6523 0.45703-3.3945 2.1094-3.8828 4.0117-1.1836 8.3828-0.74219 12.004 1.2148 2.7305 1.4805 6.2578 1.4805 8.9883 0 4.2734-2.3203 9.6797-2.4766 14.117-0.41406l2.3711 1.1016c2.5078 1.168 5.5078 1.168 8.0078 0.007812l2.4414-1.125c4.4297-2.0508 9.8281-1.8828 14.09 0.42578 2.7422 1.4922 6.2734 1.4922 9 0.007813 3.6172-1.9609 7.9922-2.3984 12.004-1.2148 1.6523 0.49219 2.6016 2.2305 2.1094 3.8828-0.49219 1.6523-2.2344 2.5859-3.8828 2.1094-2.4062-0.71484-5.1133-0.44531-7.2461 0.71484-4.6133 2.4961-10.34 2.4961-14.945 0-2.5742-1.3984-5.832-1.4961-8.5039-0.25781l-2.4414 1.125c-2.0742 0.96094-4.3477 1.4375-6.6211 1.4375zm6.6211 17.211 2.4414-1.125c2.6719-1.2383 5.9258-1.1445 8.5039 0.25781 4.6094 2.4922 10.336 2.4961 14.945 0 2.1328-1.1641 4.8398-1.4297 7.2461-0.71484 1.6484 0.48438 3.3945-0.45703 3.8828-2.1094 0.49219-1.6523-0.45703-3.3945-2.1094-3.8828-4.0078-1.1836-8.3828-0.74219-12.004 1.2148-2.7305 1.4805-6.2578 1.4844-9-0.007812-4.2656-2.3086-9.6641-2.4766-14.09-0.42578l-2.4414 1.125c-2.5078 1.1641-5.5039 1.1602-8.0078-0.003907l-2.3711-1.1016c-4.4375-2.0586-9.8438-1.9023-14.117 0.41406-2.7305 1.4805-6.2578 1.4844-8.9883 0-3.6172-1.9609-7.9922-2.3984-12.004-1.2148-1.6523 0.49219-2.6016 2.2305-2.1094 3.8828 0.49219 1.6523 2.2305 2.5977 3.8828 2.1094 2.3984-0.71484 5.1094-0.44531 7.2461 0.71484 4.6055 2.4922 10.336 2.4961 14.945 0 2.5703-1.3945 5.8281-1.4883 8.5078-0.24219l2.3711 1.1016c2.082 0.96484 4.3633 1.4492 6.6445 1.4492s4.5508-0.47656 6.6211-1.4375zm-0.039062-56.129 2.5234-1.1641c2.6797-1.2422 5.8477-1.1406 8.4609 0.27344 4.6758 2.5391 10.262 2.5391 14.945 0 2.1328-1.1602 4.8398-1.4297 7.2461-0.71484 1.6484 0.48047 3.3945-0.45312 3.8828-2.1094 0.49219-1.6523-0.45703-3.3945-2.1094-3.8828-4.0078-1.1836-8.3867-0.74219-12.004 1.2148-2.8125 1.5234-6.1719 1.5234-9-0.007813-4.332-2.3477-9.5859-2.5117-14.055-0.44531l-2.5234 1.1641c-2.5195 1.1641-5.4102 1.1641-7.9297-0.007813l-2.4492-1.1367c-4.4766-2.082-9.7422-1.918-14.078 0.43359-2.8125 1.5234-6.1719 1.5234-8.9844 0-3.6172-1.9609-7.9922-2.3984-12.004-1.2148-1.6523 0.49219-2.6016 2.2305-2.1094 3.8828 0.49219 1.6562 2.2305 2.5898 3.8828 2.1094 2.3984-0.71484 5.1094-0.44531 7.25 0.71484 4.6797 2.5391 10.266 2.5391 14.945 0 2.6055-1.4141 5.7734-1.5117 8.4688-0.25781l2.4492 1.1367c2.1016 0.97656 4.3516 1.4609 6.6055 1.4609 2.2539 0 4.4883-0.48438 6.5781-1.4492zm0.039062 18.629 2.4414-1.125c2.6719-1.2422 5.9258-1.1445 8.5039 0.25781 4.6094 2.4922 10.336 2.4961 14.945 0 2.1328-1.1641 4.8398-1.4297 7.2461-0.71484 1.6484 0.47656 3.3945-0.45703 3.8828-2.1094 0.49219-1.6523-0.45703-3.3945-2.1094-3.8828-4.0078-1.1797-8.3828-0.74219-12.004 1.2148-2.7305 1.4805-6.2578 1.4844-9-0.007812-4.2656-2.3047-9.6641-2.4766-14.09-0.42578l-2.4414 1.125c-2.5078 1.1641-5.5039 1.1602-8.0078-0.003907l-2.3711-1.1016c-4.4375-2.0586-9.8438-1.9023-14.117 0.41406-2.7305 1.4805-6.2578 1.4844-8.9883 0-3.6172-1.9609-7.9922-2.3984-12.004-1.2148-1.6523 0.49219-2.6016 2.2305-2.1094 3.8828 0.49219 1.6562 2.2305 2.5898 3.8828 2.1094 2.3984-0.71484 5.1094-0.44531 7.2461 0.71484 4.6055 2.4922 10.336 2.4961 14.945 0 2.5703-1.3945 5.8281-1.4844 8.5078-0.24219l2.3711 1.1016c2.082 0.96484 4.3633 1.4492 6.6445 1.4492s4.5508-0.47656 6.6211-1.4375z"/>
<text x="0.0" y="117.5" font-size="5.0" font-weight="bold" font-family="Arbeit Regular, Helvetica, Arial-Unicode, Arial, Sans-serif" fill="#000000">Created by Corner Pixel</text><text x="0.0" y="122.5" font-size="5.0" font-weight="bold" font-family="Arbeit Regular, Helvetica, Arial-Unicode, Arial, Sans-serif" fill="#000000">from Noun Project</text></svg>