<svg xmlns="http://www.w3.org/2000/svg" version="1.1" viewBox="-5.0 -10.0 110.0 135.0">
 <path d="m21.992 65.312c-1.2656 0-2.2969-1.0273-2.2969-2.2969 0-1.2656 1.0273-2.2969 2.2969-2.2969 1.9453 0 3.7031-0.78906 4.9766-2.0625 0.85547-0.85547 1.4922-1.9336 1.8164-3.1367 0.29688-1.1016 1.2617-1.8398 2.4023-1.8398h0.26953c1.1406 0 2.1055 0.73828 2.4023 1.8398 0.32422 1.207 0.96094 2.2812 1.8164 3.1367 1.2734 1.2734 3.0312 2.0625 4.9766 2.0625 1.9453 0 3.7031-0.78906 4.9766-2.0625 0.85547-0.85547 1.4922-1.9336 1.8164-3.1367 0.29688-1.1016 1.2617-1.8398 2.4023-1.8398h0.27344c1.1406 0 2.1055 0.73828 2.4023 1.8398 0.32812 1.207 0.96484 2.2812 1.8164 3.1367 1.2734 1.2734 3.0312 2.0625 4.9766 2.0625 1.9453 0 3.7031-0.78906 4.9766-2.0625 0.85938-0.85547 1.4922-1.9336 1.8164-3.1367 0.29688-1.1016 1.2617-1.8398 2.4023-1.8398h0.26953c1.1406 0 2.1055 0.73828 2.4023 1.8398 0.32422 1.207 0.96484 2.2812 1.8164 3.1367 1.2734 1.2734 3.0312 2.0625 4.9766 2.0625 1.2656 0 2.2969 1.0273 2.2969 2.2969 0 1.2656-1.0273 2.2969-2.2969 2.2969-3.2109 0-6.1211-1.3008-8.2266-3.4062-0.39844-0.39844-0.76953-0.83203-1.1094-1.2852-0.33984 0.45703-0.71094 0.88672-1.1094 1.2852-2.1055 2.1055-5.0117 3.4062-8.2266 3.4062-3.2109 0-6.1211-1.3008-8.2227-3.4062-0.39844-0.39844-0.76953-0.83203-1.1094-1.2852-0.33984 0.45703-0.71094 0.88672-1.1094 1.2852-2.1055 2.1055-5.0117 3.4062-8.2227 3.4062s-6.1211-1.3008-8.2266-3.4062c-0.39844-0.39844-0.76953-0.83203-1.1094-1.2852-0.33984 0.45703-0.71094 0.88672-1.1094 1.2852-2.1055 2.1055-5.0117 3.4062-8.2266 3.4062zm-18.672-18.992c-1.2656 0-2.2969-1.0273-2.2969-2.2969 0-1.2695 1.0273-2.2969 2.2969-2.2969 1.9453 0 3.7031-0.78906 4.9805-2.0625 0.85547-0.85547 1.4922-1.9336 1.8164-3.1367 0.29687-1.1016 1.2617-1.8398 2.4023-1.8398h0.27344c1.1406 0 2.1055 0.73828 2.4023 1.8398 0.32813 1.207 0.96484 2.2812 1.8164 3.1367 1.2734 1.2734 3.0312 2.0625 4.9766 2.0625 1.9453 0 3.7031-0.78906 4.9766-2.0625 0.85547-0.85547 1.4922-1.9336 1.8164-3.1367 0.29688-1.1016 1.2617-1.8398 2.4023-1.8398h0.26953c1.1406 0 2.1055 0.73828 2.4023 1.8398 0.32422 1.207 0.96094 2.2812 1.8164 3.1367 1.2734 1.2734 3.0312 2.0625 4.9766 2.0625 1.9453 0 3.7031-0.78906 4.9766-2.0625 0.85547-0.85547 1.4922-1.9336 1.8164-3.1367 0.29688-1.1016 1.2617-1.8398 2.4023-1.8398h0.27344c1.1406 0 2.1055 0.73828 2.4023 1.8398 0.32812 1.207 0.96484 2.2812 1.8164 3.1367 1.2734 1.2734 3.0312 2.0625 4.9766 2.0625s3.7031-0.78906 4.9766-2.0625c0.85938-0.85547 1.4922-1.9336 1.8164-3.1367 0.29688-1.1016 1.2617-1.8398 2.4023-1.8398h0.26953c1.1406 0 2.1055 0.73828 2.4023 1.8398 0.32422 1.207 0.96484 2.2812 1.8164 3.1367 1.2734 1.2734 3.0312 2.0625 4.9766 2.0625 1.9453 0 3.7031-0.78906 4.9766-2.0625 0.85547-0.85547 1.4922-1.9336 1.8164-3.1367 0.29688-1.1016 1.2617-1.8398 2.4023-1.8398h0.27344c1.1406 0 2.1055 0.73828 2.4023 1.8398 0.32812 1.207 0.96484 2.2812 1.8164 3.1367 1.2734 1.2734 3.0312 2.0625 4.9805 2.0625 1.2656 0 2.2969 1.0273 2.2969 2.2969 0 1.2656-1.0273 2.2969-2.2969 2.2969-3.2148 0-6.1211-1.3008-8.2266-3.4062-0.39844-0.39844-0.76953-0.83203-1.1094-1.2852-0.33984 0.45703-0.71094 0.88672-1.1094 1.2852-2.1055 2.1016-5.0117 3.4062-8.2227 3.4062-3.2109 0-6.1211-1.3008-8.2266-3.4062-0.39844-0.40234-0.76953-0.83203-1.1094-1.2852-0.33984 0.45703-0.71094 0.88672-1.1094 1.2852-2.1055 2.1055-5.0117 3.4062-8.2266 3.4062-3.2109 0-6.1211-1.3008-8.2227-3.4062-0.39844-0.39844-0.76953-0.83203-1.1094-1.2852-0.33984 0.45703-0.71094 0.88672-1.1094 1.2852-2.1055 2.1055-5.0117 3.4062-8.2227 3.4062-3.2109 0-6.1211-1.3008-8.2266-3.4062-0.39844-0.39844-0.76953-0.83203-1.1094-1.2852-0.33984 0.45703-0.71094 0.88672-1.1094 1.2852-2.1055 2.1016-5.0117 3.4062-8.2266 3.4062-3.2109 0-6.1211-1.3008-8.2227-3.4062-0.39844-0.40234-0.76953-0.83203-1.1094-1.2852-0.33984 0.45703-0.71094 0.88672-1.1094 1.2852-2.1055 2.1055-5.0117 3.4062-8.2266 3.4062z"/>
<text x="0.0" y="117.5" font-size="5.0" font-weight="bold" font-family="Arbeit Regular, Helvetica, Arial-Unicode, Arial, Sans-serif" fill="#000000">Created by YANDI RS</text><text x="0.0" y="122.5" font-size="5.0" font-weight="bold" font-family="Arbeit Regular, Helvetica, Arial-Unicode, Arial, Sans-serif" fill="#000000">from Noun Project</text></svg>